<?xml version="1.0" standalone="no"?>
<!DOCTYPE svg PUBLIC "-//W3C//DTD SVG 20010904//EN"
 "http://www.w3.org/TR/2001/REC-SVG-20010904/DTD/svg10.dtd">
<svg version="1.0" xmlns="http://www.w3.org/2000/svg"
 width="886.000000pt" height="886.000000pt" viewBox="0 0 886.000000 886.000000"
 preserveAspectRatio="xMidYMid meet">
<metadata>
Created by potrace 1.14, written by Peter Selinger 2001-2017
</metadata>
<g transform="translate(0.000000,886.000000) scale(0.100000,-0.100000)"
fill="#000000" stroke="none">
<path d="M0 4430 l0 -4430 838 0 837 0 38 118 c148 457 479 892 946 1245 315
238 583 555 737 872 71 146 93 203 206 535 70 205 81 246 85 325 10 172 -37
347 -170 630 l-75 160 41 9 c364 75 680 190 790 287 59 51 84 112 67 163 -13
39 -55 79 -107 101 -26 11 -40 27 -59 70 -53 115 -40 215 56 422 59 130 62
161 19 197 -17 14 -39 26 -48 26 -10 0 -56 -18 -102 -39 -224 -104 -389 -76
-639 110 -52 39 -113 80 -135 91 -22 11 -42 22 -43 23 -7 6 76 173 109 222
115 169 305 304 472 335 109 20 476 17 597 -5 440 -80 782 -255 1058 -540 l92
-96 0 -85 c0 -215 -85 -470 -300 -896 l-109 -215 -60 -290 c-115 -554 -131
-722 -96 -1019 56 -478 234 -851 551 -1156 174 -168 330 -268 535 -344 210
-78 418 -117 879 -166 415 -44 573 -72 779 -138 74 -24 89 -33 135 -83 64 -69
124 -182 165 -313 36 -111 131 -501 131 -534 l0 -22 320 0 320 0 0 4430 0
4430 -4430 0 -4430 0 0 -4430z m4540 2629 c202 -18 425 -70 629 -145 101 -38
282 -122 315 -147 19 -14 16 -28 -114 -483 -73 -258 -134 -470 -135 -472 -1
-1 -62 27 -136 62 -281 135 -548 203 -869 222 -275 16 -618 -49 -832 -157 -49
-25 -88 -36 -88 -26 0 1 29 131 65 287 93 408 142 553 216 643 60 73 297 170
494 201 172 27 283 31 455 15z m-1210 -1949 c130 -100 260 -169 376 -201 67
-18 97 -21 197 -17 106 5 117 3 112 -11 -4 -9 -15 -49 -26 -90 -46 -178 -4
-359 108 -461 l42 -40 -92 -44 c-147 -70 -385 -141 -622 -185 -388 -73 -807
-80 -1107 -20 -187 37 -398 123 -487 197 l-33 28 26 31 c39 47 108 87 246 143
262 108 520 243 750 394 141 93 325 234 384 295 45 46 41 46 126 -19z"/>
<path d="M4765 5336 c-120 -124 -56 -376 95 -376 157 0 214 281 80 394 -25 21
-42 26 -82 26 -48 0 -55 -3 -93 -44z"/>
</g>
</svg>
